<svg width="876" height="222" viewBox="0 0 876 222" fill="none" xmlns="http://www.w3.org/2000/svg">
<path fill-rule="evenodd" clip-rule="evenodd" d="M307.781 72.9999C306.662 71.067 305.118 69.3789 303.42 68.4013L244.472 34.4664C241.076 32.5112 235.519 32.5112 232.123 34.4664L173.174 68.4013C169.778 70.3561 167 75.1549 167 79.0649V146.935C167 148.89 167.695 151.068 168.814 153L197.142 136.692L197.142 136.693L168.814 153.001C169.933 154.933 171.477 156.622 173.174 157.599L232.123 191.534C235.519 193.489 241.076 193.489 244.472 191.534L303.42 157.599C305.118 156.621 306.662 154.933 307.78 153C308.899 151.068 309.595 148.89 309.595 146.935V79.0649C309.595 77.1097 308.9 74.9328 307.781 73.0003L267.445 96.2203L307.781 72.9999ZM258.884 101.149L267.445 96.2203L279.459 89.2885C270.982 74.681 255.209 65.6065 238.297 65.6065C212.088 65.6065 190.766 86.8672 190.766 113C190.766 121.625 193.088 129.718 197.142 136.692L217.72 124.846L217.72 124.846L197.142 136.693C205.372 150.851 220.738 160.394 238.297 160.394C255.21 160.394 270.983 151.319 279.461 136.71L258.89 124.842C254.647 132.155 246.756 136.697 238.297 136.697C229.517 136.697 221.835 131.925 217.72 124.846L238.297 113L258.884 101.149L258.889 101.157L267.298 96.3053L258.884 101.149L258.884 101.149ZM258.884 101.149L238.297 113L217.72 124.846C215.693 121.359 214.532 117.312 214.532 113C214.532 99.9335 225.193 89.3033 238.297 89.3033C246.752 89.3033 254.64 93.8422 258.884 101.149ZM285.829 110.367H280.547V105.101H275.267V110.367H269.985V115.633H275.267V120.899H280.547V115.633H285.829V110.367ZM300.352 110.367H305.634V115.633H300.352V120.899H295.071V115.633H289.79V110.367H295.071V105.101H300.352V110.367Z" fill="white"/>
<path fill-rule="evenodd" clip-rule="evenodd" d="M96.5556 42.7333V42H149V178H13V42H65.3689V42.7333C65.3689 51.3444 72.3489 58.3267 80.9622 58.3267C89.5733 58.3267 96.5556 51.3467 96.5556 42.7333ZM53.6044 115.291H44.5911L54.9289 163.444H64.04L71.1311 130.673H71.3044L77.9289 163.444H86.8733L98.36 115.291H89.52L82.5067 148.464H82.3755L75.6956 115.291H67.2644L59.8689 148.062H59.7578L53.6044 115.291ZM122.731 115.291H108.522L96.8644 163.444H105.92L108.289 152.729H124.476L127.544 163.444H136.842L122.731 115.291ZM110 144.827L113.931 127.16H117.722L122.236 144.827H110Z" fill="white"/>
<path d="M395.17 88.1132H414.792C426.868 88.1132 426.868 100.189 414.792 100.189H395.17V88.1132ZM348.377 143.962H408.755V127.358H395.17V115.283H410.264C426.868 115.283 417.811 143.962 431.396 143.962H469.132V115.283H460.075V118.302C460.075 130.377 446.491 128.868 444.981 121.321C443.472 113.774 437.434 107.736 435.925 107.736C458.566 95.6604 444.981 71.5094 426.868 71.5094H355.925V88.1132H371.019V127.358H348.377V143.962Z" fill="white" stroke="white" stroke-linejoin="round"/>
<path d="M408 174.906C443.846 174.906 472.906 145.846 472.906 110C472.906 74.1536 443.846 45.0943 408 45.0943C372.154 45.0943 343.094 74.1536 343.094 110C343.094 145.846 372.154 174.906 408 174.906Z" stroke="white" stroke-width="9"/>
<path d="M477.434 114.528L484.981 110L477.434 105.472V114.528Z" fill="white" stroke="white" stroke-width="3" stroke-linejoin="round"/>
<path d="M475.216 127.987L483.502 125.018L476.983 119.105L475.216 127.987Z" fill="white" stroke="white" stroke-width="3" stroke-linejoin="round"/>
<path d="M470.416 140.755L479.121 139.459L473.882 132.388L470.416 140.755Z" fill="white" stroke="white" stroke-width="3" stroke-linejoin="round"/>
<path d="M463.216 152.341L472.007 152.768L468.248 144.81L463.216 152.341Z" fill="white" stroke="white" stroke-width="3" stroke-linejoin="round"/>
<path d="M453.895 162.299L462.434 164.434L460.299 155.895L453.895 162.299Z" fill="white" stroke="white" stroke-width="3" stroke-linejoin="round"/>
<path d="M442.81 170.248L450.768 174.007L450.341 165.216L442.81 170.248Z" fill="white" stroke="white" stroke-width="3" stroke-linejoin="round"/>
<path d="M430.388 175.882L437.459 181.121L438.755 172.416L430.388 175.882Z" fill="white" stroke="white" stroke-width="3" stroke-linejoin="round"/>
<path d="M417.105 178.983L423.018 185.502L425.987 177.216L417.105 178.983Z" fill="white" stroke="white" stroke-width="3" stroke-linejoin="round"/>
<path d="M403.472 179.434L408 186.981L412.528 179.434H403.472Z" fill="white" stroke="white" stroke-width="3" stroke-linejoin="round"/>
<path d="M390.013 177.216L392.982 185.502L398.895 178.983L390.013 177.216Z" fill="white" stroke="white" stroke-width="3" stroke-linejoin="round"/>
<path d="M377.245 172.416L378.541 181.121L385.612 175.882L377.245 172.416Z" fill="white" stroke="white" stroke-width="3" stroke-linejoin="round"/>
<path d="M365.659 165.216L365.232 174.007L373.19 170.248L365.659 165.216Z" fill="white" stroke="white" stroke-width="3" stroke-linejoin="round"/>
<path d="M355.701 155.895L353.566 164.434L362.105 162.299L355.701 155.895Z" fill="white" stroke="white" stroke-width="3" stroke-linejoin="round"/>
<path d="M347.752 144.81L343.993 152.768L352.784 152.341L347.752 144.81Z" fill="white" stroke="white" stroke-width="3" stroke-linejoin="round"/>
<path d="M342.118 132.388L336.879 139.459L345.584 140.755L342.118 132.388Z" fill="white" stroke="white" stroke-width="3" stroke-linejoin="round"/>
<path d="M339.017 119.105L332.498 125.018L340.784 127.987L339.017 119.105Z" fill="white" stroke="white" stroke-width="3" stroke-linejoin="round"/>
<path d="M338.566 105.472L331.019 110L338.566 114.528V105.472Z" fill="white" stroke="white" stroke-width="3" stroke-linejoin="round"/>
<path d="M340.784 92.0128L332.498 94.9817L339.017 100.895L340.784 92.0128Z" fill="white" stroke="white" stroke-width="3" stroke-linejoin="round"/>
<path d="M345.584 79.2452L336.879 80.5406L342.118 87.6124L345.584 79.2452Z" fill="white" stroke="white" stroke-width="3" stroke-linejoin="round"/>
<path d="M352.784 67.6594L343.993 67.2316L347.752 75.1897L352.784 67.6594Z" fill="white" stroke="white" stroke-width="3" stroke-linejoin="round"/>
<path d="M362.105 57.7008L353.566 55.5661L355.701 64.1048L362.105 57.7008Z" fill="white" stroke="white" stroke-width="3" stroke-linejoin="round"/>
<path d="M373.19 49.752L365.232 45.9925L365.659 54.7836L373.19 49.752Z" fill="white" stroke="white" stroke-width="3" stroke-linejoin="round"/>
<path d="M385.612 44.1185L378.541 38.8787L377.245 47.5843L385.612 44.1185Z" fill="white" stroke="white" stroke-width="3" stroke-linejoin="round"/>
<path d="M398.895 41.0167L392.982 34.498L390.013 42.7836L398.895 41.0167Z" fill="white" stroke="white" stroke-width="3" stroke-linejoin="round"/>
<path d="M412.528 40.566L408 33.0189L403.472 40.566H412.528Z" fill="white" stroke="white" stroke-width="3" stroke-linejoin="round"/>
<path d="M425.987 42.7836L423.018 34.498L417.105 41.0168L425.987 42.7836Z" fill="white" stroke="white" stroke-width="3" stroke-linejoin="round"/>
<path d="M438.755 47.5843L437.459 38.8787L430.388 44.1185L438.755 47.5843Z" fill="white" stroke="white" stroke-width="3" stroke-linejoin="round"/>
<path d="M450.341 54.7836L450.768 45.9925L442.81 49.752L450.341 54.7836Z" fill="white" stroke="white" stroke-width="3" stroke-linejoin="round"/>
<path d="M460.299 64.1048L462.434 55.5661L453.895 57.7008L460.299 64.1048Z" fill="white" stroke="white" stroke-width="3" stroke-linejoin="round"/>
<path d="M468.248 75.1897L472.007 67.2316L463.216 67.6594L468.248 75.1897Z" fill="white" stroke="white" stroke-width="3" stroke-linejoin="round"/>
<path d="M473.882 87.6124L479.121 80.5406L470.416 79.2452L473.882 87.6124Z" fill="white" stroke="white" stroke-width="3" stroke-linejoin="round"/>
<path d="M476.983 100.895L483.502 94.9817L475.216 92.0128L476.983 100.895Z" fill="white" stroke="white" stroke-width="3" stroke-linejoin="round"/>
<path d="M397.434 46.6038L408 57.1698L418.566 46.6038H397.434Z" fill="white" stroke="white" stroke-width="6" stroke-linejoin="round"/>
<path d="M465.028 80.3606L458.245 93.6745L471.558 100.458L465.028 80.3606Z" fill="white" stroke="white" stroke-width="6" stroke-linejoin="round"/>
<path d="M453.811 155.078L439.053 152.741L436.715 167.499L453.811 155.078Z" fill="white" stroke="white" stroke-width="6" stroke-linejoin="round"/>
<path d="M379.285 167.499L376.947 152.741L362.189 155.078L379.285 167.499Z" fill="white" stroke="white" stroke-width="6" stroke-linejoin="round"/>
<path d="M344.442 100.458L357.756 93.6746L350.972 80.3606L344.442 100.458Z" fill="white" stroke="white" stroke-width="6" stroke-linejoin="round"/>
<path fill-rule="evenodd" clip-rule="evenodd" d="M646.318 74.6488C646.357 76.0624 646.373 77.4736 646.381 78.8855C646.391 80.4931 646.391 82.1012 646.391 83.7087L646.391 83.9158V136.474V136.847C646.391 138.401 646.391 139.952 646.381 141.506C646.372 142.918 646.357 144.329 646.318 145.741C646.236 148.817 646.054 151.921 645.507 154.961C644.953 158.05 644.046 160.925 642.618 163.73C641.215 166.487 639.382 169.008 637.195 171.194C635.008 173.382 632.486 175.216 629.729 176.619C626.925 178.047 624.052 178.952 620.966 179.506C617.922 180.054 614.819 180.236 611.742 180.318C610.329 180.356 608.917 180.373 607.505 180.381C606.009 180.391 604.511 180.391 603.015 180.391L602.475 180.391H549.916L549.376 180.391C547.879 180.391 546.383 180.391 544.887 180.381C543.474 180.373 542.061 180.356 540.65 180.318C537.574 180.236 534.468 180.054 531.427 179.506C528.339 178.952 525.467 178.047 522.662 176.619C519.905 175.215 517.382 173.382 515.196 171.194C513.009 169.008 511.175 166.487 509.773 163.73C508.344 160.925 507.439 158.05 506.884 154.961C506.338 151.921 506.156 148.817 506.074 145.741C506.035 144.329 506.019 142.918 506.009 141.506C506 140.024 506 138.544 506 137.062C506 136.866 506 136.67 506 136.474V106.802V83.9158C506 83.7393 506 83.5629 506 83.3864C506 81.8863 506 80.3857 506.009 78.8853C506.019 77.4734 506.035 76.0621 506.074 74.6486C506.156 71.5737 506.338 68.4709 506.884 65.4288C507.439 62.3395 508.344 59.467 509.773 56.6606C511.175 53.9046 513.009 51.3826 515.196 49.1956C515.743 48.6488 516.31 48.1243 516.897 47.6229C518.658 46.1191 520.594 44.8248 522.662 43.7725C523.363 43.4158 524.069 43.0914 524.78 42.7974C526.916 41.9145 529.111 41.3008 531.426 40.8848C533.707 40.4737 536.025 40.2692 538.338 40.1577C539.11 40.1206 539.881 40.0936 540.65 40.0728C542.061 40.0345 543.474 40.0184 544.887 40.0097C546.563 40 548.238 40 549.916 40H565.312H602.475C604.151 40 605.829 40 607.505 40.0095C608.918 40.0182 610.329 40.0343 611.742 40.0726C614.819 40.1558 617.922 40.3364 620.966 40.8846C624.052 41.4391 626.925 42.3454 629.729 43.7725C632.486 45.1756 635.008 47.0088 637.195 49.1958C639.382 51.3829 641.215 53.9049 642.618 56.6609C644.047 59.4672 644.953 62.3398 645.508 65.4291C646.054 68.4711 646.236 71.5739 646.318 74.6488ZM617.237 126.652C617.24 126.655 617.242 126.657 617.244 126.66C629.307 141.502 626.025 157.412 624.481 154.41C618.177 142.143 606.431 145.275 600.484 148.361C599.991 148.655 599.486 148.933 598.978 149.207C598.953 149.222 598.926 149.238 598.899 149.254C598.861 149.275 598.824 149.297 598.791 149.317L598.801 149.303C586.424 155.88 569.806 156.367 553.094 149.186C539.081 143.163 527.568 132.846 520.092 120.888C523.893 123.695 528 126.165 532.368 128.212C550.029 136.483 567.766 135.886 580.319 128.204C562.453 114.464 547.54 96.5708 536.105 82.0689C533.905 79.4679 531.904 76.7663 530.222 73.9606C543.915 86.4935 565.546 102.231 573.307 106.587C556.833 89.1824 542.317 67.7487 542.998 68.4349C568.943 94.5779 592.882 109.358 592.882 109.358C593.783 109.855 594.455 110.253 594.987 110.603C595.478 109.343 595.923 108.047 596.292 106.696C600.435 91.5526 595.772 74.2365 585.226 59.9402C609.291 74.3916 623.512 101.838 617.686 125.053C617.573 125.504 617.443 125.943 617.313 126.382C617.287 126.471 617.26 126.56 617.234 126.649C617.235 126.65 617.236 126.651 617.237 126.652Z" fill="white"/>
<g clip-path="url(#clip0_1_2)">
<path d="M673.5 100.2C673.1 100.2 673 100 673.2 99.7L675.3 97C675.5 96.7 676 96.5 676.4 96.5H712.1C712.5 96.5 712.6 96.8 712.4 97.1L710.7 99.7C710.5 100 710 100.3 709.7 100.3L673.5 100.2Z" fill="white"/>
<path d="M658.4 109.4C658 109.4 657.9 109.2 658.1 108.9L660.2 106.2C660.4 105.9 660.9 105.7 661.3 105.7H706.9C707.3 105.7 707.5 106 707.4 106.3L706.6 108.7C706.5 109.1 706.1 109.3 705.7 109.3L658.4 109.4Z" fill="white"/>
<path d="M682.6 118.6C682.2 118.6 682.1 118.3 682.3 118L683.7 115.5C683.9 115.2 684.3 114.9 684.7 114.9H704.7C705.1 114.9 705.3 115.2 705.3 115.6L705.1 118C705.1 118.4 704.7 118.7 704.4 118.7L682.6 118.6Z" fill="white"/>
<path d="M786.4 98.4C780.1 100 775.8 101.2 769.6 102.8C768.1 103.2 768 103.3 766.7 101.8C765.2 100.1 764.1 99 762 98C755.7 94.9 749.6 95.8 743.9 99.5C737.1 103.9 733.6 110.4 733.7 118.5C733.8 126.5 739.3 133.1 747.2 134.2C754 135.1 759.7 132.7 764.2 127.6C765.1 126.5 765.9 125.3 766.9 123.9C763.3 123.9 758.8 123.9 747.6 123.9C745.5 123.9 745 122.6 745.7 120.9C747 117.8 749.4 112.6 750.8 110C751.1 109.4 751.8 108.4 753.3 108.4C758.4 108.4 777.2 108.4 789.7 108.4C789.5 111.1 789.5 113.8 789.1 116.5C788 123.7 785.3 130.3 780.9 136.1C773.7 145.6 764.3 151.5 752.4 153.1C742.6 154.4 733.5 152.5 725.5 146.5C718.1 140.9 713.9 133.5 712.8 124.3C711.5 113.4 714.7 103.6 721.3 95C728.4 85.7 737.8 79.8 749.3 77.7C758.7 76 767.7 77.1 775.8 82.6C781.1 86.1 784.9 90.9 787.4 96.7C788 97.6 787.6 98.1 786.4 98.4Z" fill="white"/>
<path d="M819.5 153.7C810.4 153.5 802.1 150.9 795.1 144.9C789.2 139.8 785.5 133.3 784.3 125.6C782.5 114.3 785.6 104.3 792.4 95.4C799.7 85.8 808.5 80.8 820.4 78.7C830.6 76.9 840.2 77.9 848.9 83.8C856.8 89.2 861.7 96.5 863 106.1C864.7 119.6 860.8 130.6 851.5 140C844.9 146.7 836.8 150.9 827.5 152.8C824.8 153.3 822.1 153.4 819.5 153.7ZM843.3 113.3C843.2 112 843.2 111 843 110C841.2 100.1 832.1 94.5 822.6 96.7C813.3 98.8 807.3 104.7 805.1 114.1C803.3 121.9 807.1 129.8 814.3 133C819.8 135.4 825.3 135.1 830.6 132.4C838.5 128.3 842.8 121.9 843.3 113.3Z" fill="white"/>
</g>
<defs>
<clipPath id="clip0_1_2">
<rect width="205.4" height="76.7" fill="white" transform="translate(658 77)"/>
</clipPath>
</defs>
</svg>
