<svg width="322" height="322" viewBox="0 0 322 322" fill="none" xmlns="http://www.w3.org/2000/svg">
<rect width="322" height="322" rx="38" fill="#161413"/>
<path d="M97.02 252V237.7C101.127 237.7 104.06 236.893 105.82 235.28C107.58 233.667 108.68 231.393 109.12 228.46C109.707 225.38 110 221.933 110 218.12V181.16C110 178.52 110.073 175.587 110.22 172.36C110.367 168.987 110.587 165.687 110.88 162.46C108.533 162.607 105.747 162.753 102.52 162.9C99.44 162.9 97.0933 162.973 95.48 163.12V146.4C102.227 146.4 107.947 146.033 112.64 145.3C117.333 144.567 121 143.687 123.64 142.66C126.427 141.633 128.333 140.68 129.36 139.8H140.14C140.433 141.267 140.58 143.1 140.58 145.3C140.727 147.5 140.873 149.333 141.02 150.8C146.007 146.987 151.36 143.98 157.08 141.78C162.947 139.58 168.447 138.48 173.58 138.48C180.327 138.48 185.9 139.727 190.3 142.22C194.7 144.567 198.22 148.16 200.86 153C206.14 148.6 211.933 145.08 218.24 142.44C224.693 139.8 230.853 138.48 236.72 138.48C248.6 138.48 257.547 141.927 263.56 148.82C269.72 155.567 272.8 167.373 272.8 184.24V216.58C272.8 218.633 272.727 221.567 272.58 225.38C272.433 229.047 272.213 232.567 271.92 235.94C274.267 235.647 276.833 235.5 279.62 235.5C282.553 235.353 284.753 235.28 286.22 235.28V252H230.56V237.7C233.933 237.7 236.353 236.893 237.82 235.28C239.433 233.667 240.46 231.393 240.9 228.46C241.34 225.38 241.56 221.933 241.56 218.12V184.46C241.413 174.927 239.8 168.327 236.72 164.66C233.787 160.993 229.827 159.087 224.84 158.94C221.027 158.793 217.433 159.453 214.06 160.92C210.833 162.387 207.9 164.147 205.26 166.2C205.993 169.133 206.507 172.36 206.8 175.88C207.093 179.4 207.24 183.14 207.24 187.1C207.24 192.087 207.24 197 207.24 201.84C207.24 206.68 207.24 211.593 207.24 216.58C207.24 218.633 207.167 221.567 207.02 225.38C206.873 229.047 206.653 232.567 206.36 235.94C208.707 235.647 211.273 235.5 214.06 235.5C216.847 235.353 219.047 235.28 220.66 235.28V252H163.9V237.7C167.713 237.7 170.427 236.893 172.04 235.28C173.8 233.667 174.9 231.393 175.34 228.46C175.78 225.38 176 221.933 176 218.12L175.78 183.8C175.78 174.267 174.387 167.74 171.6 164.22C168.813 160.7 164.927 158.867 159.94 158.72C156.273 158.72 152.827 159.527 149.6 161.14C146.52 162.753 143.733 164.66 141.24 166.86C141.24 168.767 141.24 170.6 141.24 172.36C141.24 174.12 141.24 175.953 141.24 177.86V216.58C141.24 218.633 141.167 221.567 141.02 225.38C140.873 229.047 140.653 232.567 140.36 235.94C142.707 235.647 145.127 235.5 147.62 235.5C150.113 235.353 152.093 235.28 153.56 235.28V252H97.02Z" fill="white"/>
<path fill-rule="evenodd" clip-rule="evenodd" d="M47 37.5C47 32.8056 43.1944 29 38.5 29C33.8056 29 30 32.8056 30 37.5L30 76.5C30 81.1944 33.8056 85 38.5 85C43.1944 85 47 81.1944 47 76.5L47 37.5ZM38.5 96C43.1944 96 47 99.8056 47 104.5L47 143.5C47 148.194 43.1944 152 38.5 152C33.8056 152 30 148.194 30 143.5L30 104.5C30 99.8056 33.8056 96 38.5 96ZM47 171.5C47 166.806 43.1944 163 38.5 163C33.8056 163 30 166.806 30 171.5L30 210.5C30 215.194 33.8056 219 38.5 219C43.1944 219 47 215.194 47 210.5L47 171.5ZM38.5 230C43.1944 230 47 233.806 47 238.5L47 269H77.5C82.1944 269 86 272.806 86 277.5C86 282.194 82.1944 286 77.5 286H38.5C33.8056 286 30 282.194 30 277.5L30 238.5C30 233.806 33.8056 230 38.5 230ZM97 277.5C97 272.806 100.806 269 105.5 269H144.5C149.194 269 153 272.806 153 277.5C153 282.194 149.194 286 144.5 286H105.5C100.806 286 97 282.194 97 277.5ZM172.5 269C167.806 269 164 272.806 164 277.5C164 282.194 167.806 286 172.5 286H211.5C216.194 286 220 282.194 220 277.5C220 272.806 216.194 269 211.5 269H172.5ZM239.5 269C234.806 269 231 272.806 231 277.5C231 282.194 234.806 286 239.5 286H278.5C283.194 286 287 282.194 287 277.5C287 272.806 283.194 269 278.5 269H239.5Z" fill="white" fill-opacity="0.2"/>
</svg>
